
<svg xmlns="http://www.w3.org/2000/svg" version="1.1" xmlns:xlink="http://www.w3.org/1999/xlink" preserveAspectRatio="none" x="0px" y="0px" width="1366px" height="769px" viewBox="0 0 1366 769">
<defs>
<image id="Bitmap_Background_png" x="0" y="0" width="1366" height="768" xlink:href="./images/Bitmap_Background_png.png"/>

<image id="Bitmap_MainMenuFrame_png" x="0" y="0" width="1366" height="188" xlink:href="./images/Bitmap_MainMenuFrame_png.png"/>

<image id="Practice_PracticeTitleTxt_png" x="0" y="0" width="416" height="70" xlink:href="./images/Practice_PracticeTitleTxt_png.png"/>

<image id="BodyPartScreen_LowerBodyPart_LowerBodyPic_png" x="0" y="0" width="422" height="513" xlink:href="./images/BodyPartScreen_LowerBodyPart_LowerBodyPic_png.png"/>

<image id="BodyPartScreen_LowerBodyPart_LineThighPic_png" x="0" y="0" width="321" height="66" xlink:href="./images/BodyPartScreen_LowerBodyPart_LineThighPic_png.png"/>

<image id="AlfabetButton_AnsBoc_png" x="0" y="0" width="82" height="82" xlink:href="./images/AlfabetButton_AnsBoc_png.png"/>

<image id="AlfabetButton_T_png" x="0" y="0" width="82" height="82" xlink:href="./images/AlfabetButton_T_png.png"/>

<image id="AlfabetButton_H_png" x="0" y="0" width="82" height="82" xlink:href="./images/AlfabetButton_H_png.png"/>

<image id="AlfabetButton_I_png" x="0" y="0" width="82" height="82" xlink:href="./images/AlfabetButton_I_png.png"/>

<image id="AlfabetButton_G_png" x="0" y="0" width="82" height="82" xlink:href="./images/AlfabetButton_G_png.png"/>

<image id="AlfabetButton_Clear_png" x="0" y="0" width="213" height="82" xlink:href="./images/AlfabetButton_Clear_png.png"/>

<image id="Bitmap_NextButton_png" x="0" y="0" width="241" height="82" xlink:href="./images/Bitmap_NextButton_png.png"/>
</defs>

<g id="Background">
<g transform="matrix( 0.9999847412109375, 0, 0, 0.9999847412109375, 0,0) ">
<use xlink:href="#Bitmap_Background_png"/>
</g>
</g>

<g id="Obj1">
<g transform="matrix( 1, 0, 0, 1, 0,0) ">
<use xlink:href="#Bitmap_MainMenuFrame_png"/>
</g>
</g>

<g id="Obj2">
<g transform="matrix( 1, 0, 0, 1, 475,59) ">
<use xlink:href="#Practice_PracticeTitleTxt_png"/>
</g>

<g transform="matrix( 1, 0, 0, 1, 475,59) ">
<use xlink:href="#Practice_PracticeTitleTxt_png"/>
</g>
</g>

<g id="Obj3">
<g transform="matrix( 0.5772552490234375, 0, 0, 0.5772552490234375, 97.8,311.65) ">
<g id="Layer_1">
<g transform="matrix( 1, 0, 0, 1, 0,0) ">
<use xlink:href="#BodyPartScreen_LowerBodyPart_LowerBodyPic_png"/>
</g>
</g>
</g>

<g transform="matrix( 0.5772552490234375, 0, 0, 0.5772552490234375, 236.35,351.8) ">
<g id="Layer_1">
<g transform="matrix( 1, 0, 0, 1, 0,0) ">
<use xlink:href="#BodyPartScreen_LowerBodyPart_LineThighPic_png"/>
</g>
</g>
</g>
</g>

<g id="Obj4">
<g transform="matrix( 1, 0, 0, 1, 396.1,190) ">
<clipPath id="Mask_Mask_1">
<rect x="-2" y="-2" width="577.8" height="84.3" fill="#FFFFFF" stroke="none"/>
</clipPath>

<text clip-path="url(#Mask_Mask_1)" writing-mode="lr"><tspan x="58.15" y="64.25" baseline-shift="0%" font-family="Cooper Black" font-size="70" fill="#000000" xml:space="preserve">What is this?</tspan></text>
</g>
</g>

<g id="Obj5">
<g transform="matrix( 1, 0, 0, 1, 477,313.65) ">
<clipPath id="Mask_Mask_2">
<rect x="-2" y="-2" width="733.8" height="44.15" fill="#FFFFFF" stroke="none"/>
</clipPath>

<text clip-path="url(#Mask_Mask_2)" writing-mode="lr"><tspan x="21.1" y="32.15" baseline-shift="0%" font-family="Cooper Black" font-size="35" fill="#000000" xml:space="preserve">Click the letter to fill in the blank box!</tspan></text>
</g>
</g>

<g id="Obj6">
<g transform="matrix( 1, 0, 0, 1, 608.05,355.8) ">
<g id="Layer_1">
<g transform="matrix( 1, 0, 0, 1, 0,0) ">
<use xlink:href="#AlfabetButton_AnsBoc_png"/>
</g>
</g>
</g>

<g transform="matrix( 1, 0, 0, 1, 704.45,355.8) ">
<g id="Layer_1">
<g transform="matrix( 1, 0, 0, 1, 0,0) ">
<use xlink:href="#AlfabetButton_AnsBoc_png"/>
</g>
</g>
</g>

<g transform="matrix( 1, 0, 0, 1, 800.85,355.8) ">
<g id="Layer_1">
<g transform="matrix( 1, 0, 0, 1, 0,0) ">
<use xlink:href="#AlfabetButton_AnsBoc_png"/>
</g>
</g>
</g>

<g transform="matrix( 1, 0, 0, 1, 897.25,355.8) ">
<g id="Layer_1">
<g transform="matrix( 1, 0, 0, 1, 0,0) ">
<use xlink:href="#AlfabetButton_AnsBoc_png"/>
</g>
</g>
</g>

<g transform="matrix( 1, 0, 0, 1, 993.75,355.8) ">
<g id="Layer_1">
<g transform="matrix( 1, 0, 0, 1, 0,0) ">
<use xlink:href="#AlfabetButton_AnsBoc_png"/>
</g>
</g>
</g>
</g>

<g id="Obj7">
<g transform="matrix( 1, 0, 0, 1, 800.85,478.85) ">
<g id="Layer_1">
<g transform="matrix( 1, 0, 0, 1, 0,0) ">
<use xlink:href="#AlfabetButton_T_png"/>
</g>
</g>
</g>

<g transform="matrix( 1, 0, 0, 1, 704.45,478.85) ">
<g id="Layer_1">
<g transform="matrix( 1, 0, 0, 1, 0,0) ">
<use xlink:href="#AlfabetButton_H_png"/>
</g>
</g>
</g>

<g transform="matrix( 1, 0, 0, 1, 608.05,478.85) ">
<g id="Layer_1">
<g transform="matrix( 1, 0, 0, 1, 0,0) ">
<use xlink:href="#AlfabetButton_I_png"/>
</g>
</g>
</g>

<g transform="matrix( 1, 0, 0, 1, 993.75,478.85) ">
<g id="Layer_1">
<g transform="matrix( 1, 0, 0, 1, 0,0) ">
<use xlink:href="#AlfabetButton_G_png"/>
</g>
</g>
</g>

<g transform="matrix( 1, 0, 0, 1, 897.25,478.85) ">
<g id="Layer_1">
<g transform="matrix( 1, 0, 0, 1, 0,0) ">
<use xlink:href="#AlfabetButton_H_png"/>
</g>
</g>
</g>
</g>

<g id="Obj8">
<g transform="matrix( 1, 0, 0, 1, 735.4,581.25) ">
<g id="Layer_1">
<g transform="matrix( 1, 0, 0, 1, 0,0) ">
<use xlink:href="#AlfabetButton_Clear_png"/>
</g>
</g>
</g>
</g>

<g id="Obj9">
<g transform="matrix( 1, 0, 0, 1, 1125,687) ">
<g id="Layer_1">
<g transform="matrix( 1, 0, 0, 1, 0,0) ">
<g id="Layer_1">
<g transform="matrix( 1, 0, 0, 1, 0,0) ">
<use xlink:href="#Bitmap_NextButton_png"/>
</g>
</g>
</g>
</g>
</g>
</g>

<g id="Obj10"/>

<g id="Obj11"/>

<g id="Obj12"/>

<g id="Obj13"/>

<g id="Obj14"/>

<g id="Obj15"/>

<g id="Obj16"/>

<g id="Obj17"/>

<g id="Obj18"/>

<g id="Obj19"/>

<g id="Obj20"/>

<g id="Obj21"/>

<g id="Obj22"/>

<g id="Obj23">
<g transform="matrix( 1.0320892333984375, 0, 0, 1.1255950927734375, 610.1,362.8) ">
<clipPath id="Mask_Mask_3">
<rect x="-2" y="-2" width="79.45" height="72.85" fill="#FFFFFF" stroke="none"/>
</clipPath>

<text clip-path="url(#Mask_Mask_3)" writing-mode="lr"/>
</g>

<g transform="matrix( 1.0320892333984375, 0, 0, 1.1255950927734375, 706.5,362.8) ">
<clipPath id="Mask_Mask_4">
<rect x="-2" y="-2" width="79.45" height="72.85" fill="#FFFFFF" stroke="none"/>
</clipPath>

<text clip-path="url(#Mask_Mask_4)" writing-mode="lr"/>
</g>

<g transform="matrix( 1.0320892333984375, 0, 0, 1.1255950927734375, 802.9,362.8) ">
<clipPath id="Mask_Mask_5">
<rect x="-2" y="-2" width="79.45" height="72.85" fill="#FFFFFF" stroke="none"/>
</clipPath>

<text clip-path="url(#Mask_Mask_5)" writing-mode="lr"/>
</g>

<g transform="matrix( 1.0320892333984375, 0, 0, 1.1255950927734375, 899.3,362.8) ">
<clipPath id="Mask_Mask_6">
<rect x="-2" y="-2" width="79.45" height="72.85" fill="#FFFFFF" stroke="none"/>
</clipPath>

<text clip-path="url(#Mask_Mask_6)" writing-mode="lr"/>
</g>

<g transform="matrix( 1.0320892333984375, 0, 0, 1.1255950927734375, 995.8,362.8) ">
<clipPath id="Mask_Mask_7">
<rect x="-2" y="-2" width="79.45" height="72.85" fill="#FFFFFF" stroke="none"/>
</clipPath>

<text clip-path="url(#Mask_Mask_7)" writing-mode="lr"/>
</g>
</g>

<g id="Obj24"/>

<g id="Obj25"/>

<g id="Obj26"/>

<g id="Obj27"/>

<g id="Obj28"/>

<g id="Obj29"/>

<g id="Obj30"/>

<g id="Obj31"/>

<g id="Obj32"/>

<g id="Obj33"/>

<g id="Obj34"/>

<g id="Obj35"/>

<g id="Obj36"/>

<g id="Obj37"/>

<g id="Obj38"/>

<g id="Action"/>
</svg>
